<?xml version="1.0" encoding="UTF-8" standalone="no"?>
<svg
   xmlns:dc="http://purl.org/dc/elements/1.1/"
   xmlns:cc="http://creativecommons.org/ns#"
   xmlns:rdf="http://www.w3.org/1999/02/22-rdf-syntax-ns#"
   xmlns:svg="http://www.w3.org/2000/svg"
   xmlns="http://www.w3.org/2000/svg"
   xmlns:sodipodi="http://sodipodi.sourceforge.net/DTD/sodipodi-0.dtd"
   xmlns:inkscape="http://www.inkscape.org/namespaces/inkscape"
   width="210mm"
   height="297mm"
   viewBox="0 0 210 297"
   version="1.1"
   id="svg8"
   inkscape:version="1.0.1 (3bc2e813f5, 2020-09-07)"
   sodipodi:docname="shino49.svg"
   inkscape:export-filename="D:\CodeRepo\MyBlog\hexo_blog\source\res\shino49.png"
   inkscape:export-xdpi="96"
   inkscape:export-ydpi="96">
  <defs
     id="defs2" />
  <sodipodi:namedview
     id="base"
     pagecolor="#ffffff"
     bordercolor="#666666"
     borderopacity="1.0"
     inkscape:pageopacity="0.0"
     inkscape:pageshadow="2"
     inkscape:zoom="0.70000001"
     inkscape:cx="416.45938"
     inkscape:cy="715.29088"
     inkscape:document-units="mm"
     inkscape:current-layer="layer1"
     inkscape:document-rotation="0"
     showgrid="false"
     inkscape:window-width="1413"
     inkscape:window-height="1030"
     inkscape:window-x="96"
     inkscape:window-y="0"
     inkscape:window-maximized="0" />
  <metadata
     id="metadata5">
    <rdf:RDF>
      <cc:Work
         rdf:about="">
        <dc:format>image/svg+xml</dc:format>
        <dc:type
           rdf:resource="http://purl.org/dc/dcmitype/StillImage" />
        <dc:title />
      </cc:Work>
    </rdf:RDF>
  </metadata>
  <g
     inkscape:label="图层 1"
     inkscape:groupmode="layer"
     id="layer1">
    <path
       style="fill:none;stroke:#000000;stroke-width:1.01963px;stroke-linecap:butt;stroke-linejoin:miter;stroke-opacity:1"
       d="m 113.03532,85.577147 c 24.3532,-31.64897 -12.17659,-36.64615 -12.17659,-36.64615 0,0 -14.459737,3.56941 -19.025947,10.2324 -4.56623,6.66292 -4.56623,8.80456 -4.31257,10.47033 0.25346,1.66569 5.83463,2.37959 5.83463,2.37959 0,0 -4.56621,3.3315 -7.35671,2.61759 -2.79045,-0.71387 -1.52208,-7.61481 -1.52208,-7.61481 0,0 2.02944,-9.28047 7.35673,-14.75361 5.32724,-5.47317 21.309027,-11.42218 21.309027,-11.42218 0,0 19.78698,-1.90369 21.56276,14.75364 1.77573,16.65733 0,18.56101 -0.50736,23.79619 -0.50736,5.23515 -12.4303,9.51847 -5.58095,7.85278 6.84932,-1.66577 19.02592,-1.42778 28.91943,2.8555 9.89346,4.28332 21.56274,12.136063 29.42677,19.512923 7.86407,7.37678 19.53332,24.2721 24.09953,42.5952 4.56623,18.32306 3.04416,69.2469 -1.01471,50.68589 -4.05886,-18.56101 -3.5515,-20.22678 -4.56622,-16.41941 -1.01472,3.80741 -14.45973,31.17305 -27.90475,38.31192 -13.44497,7.13883 -16.48912,7.13883 -16.48912,7.13883 0,0 19.53327,-30.93503 15.72811,-34.50448 -3.80517,-3.56941 -14.7134,-18.0851 -19.02596,-26.41374 -4.31252,-8.32869 -7.35667,-13.32591 -7.35667,-13.32591 0,0 -2.02944,21.4166 -10.14716,33.55265 -8.11774,12.13605 1.52206,22.60638 1.52206,22.60638 0,0 -18.26493,-7.13883 -27.39737,-28.31747 -9.132417,-21.17861 -18.011207,-35.93229 -18.011207,-35.93229 0,0 -4.05885,51.63775 -5.58093,35.45637 -1.52208,-16.18141 -2.02943,-26.41378 -2.7905,-24.51006 -0.76101,1.90369 -19.0259,15.94342 -16.99647,28.07948 2.02943,12.13605 3.04415,27.84156 8.11773,34.74247 5.07358,6.90091 9.89346,9.99437 6.59566,9.04255 -3.29785,-0.95186 -20.80168,-4.52128 -28.91942,-16.18142 -8.11773,-11.66014 -11.16188,-39.97761 -11.92294,-34.26652 -0.76101,5.71109 -6.34199,22.60638 -4.56622,29.03134 1.77577,6.425 12.68396,28.55546 7.10301,22.84437 -5.58094,-5.71109 -13.95237,-18.0851 -13.69867,-31.64897 0.25346,-13.56382 3.80521,-34.50451 6.84932,-41.6433 3.04419,-7.1389 5.07362,-11.89813 1.77577,-7.1389 -3.29785,4.75927 -13.191311,23.55824 -14.713386,29.98323 -1.522074,6.42497 -7.356714,15.46752 -7.610373,24.03415 -0.2538581,8.56664 -1.0147161,23.7962 4.312525,23.7962 5.327281,0 13.191354,-2.61759 12.430304,-1.90369 -0.76107,0.71387 -7.610381,12.13606 -11.415588,10.23237 -3.805167,-1.90372 -11.4155401,-2.37963 -10.4008231,-18.32309 1.014716,-15.94343 3.297808,-34.50448 8.8787491,-46.87849 5.58094,-12.37404 14.713392,-30.93509 18.518592,-35.45633 3.80521,-4.52132 12.4303,-19.75087 19.53332,-25.93788 7.10301,-6.187 25.1142,-16.657323 33.99299,-20.702723 8.87878,-4.04533 14.713387,-7.61478 19.786967,-7.37679 5.07358,0.23781 7.35671,0.71387 7.35671,0.71387 z"
       id="path130" />
    <path
       style="fill:#cccccc;stroke-width:2.05997"
       d="m 59.045833,224.10119 c -10.84993,-6.2061 -15.0686,-14.01367 -20.84053,-38.56987 -2.20183,-9.36752 -4.97119,-6.09072 -7.58783,8.97811 -1.38145,7.95559 -2.79301,15.81147 -3.13679,17.45743 -0.34378,1.646 -0.71617,-3.74086 -0.82748,-11.97082 -0.17452,-12.9012 1.66058,-24.02718 7.53531,-45.68589 3.86905,-14.2642 -10.99407,8.67492 -18.613448,28.72725 -2.576127,6.77972 -3.840289,8.4642 -3.945902,5.25784 -0.226484,-6.87496 14.69752,-37.23145 27.52762,-55.99321 12.01843,-17.57487 25.12887,-27.91822 50.5136,-39.852253 12.698357,-5.96983 14.150407,-6.20554 30.840267,-5.00657 21.93848,1.57609 34.91911,6.8283 50.99382,20.633153 21.30335,18.29508 31.70275,45.06572 31.05709,79.94885 l -0.20293,10.97328 -2.23329,-7.48177 c -2.72742,-9.13738 -4.38557,-9.37316 -8.02087,-1.14053 -5.23478,11.85485 -19.07729,29.22811 -26.60975,33.39702 -4.12882,2.28512 -7.8901,4.15478 -8.35846,4.15478 -0.46837,0 1.97838,-5.61132 5.43717,-12.46962 3.4588,-6.8583 6.28952,-13.69604 6.29044,-15.19501 9.2e-4,-1.49896 -3.23028,-6.88587 -7.18045,-11.97083 -3.95016,-5.08495 -9.67466,-13.8954 -12.72104,-19.5787 -3.04642,-5.6833 -6.41871,-10.84331 -7.49403,-11.46671 -1.07531,-0.62339 -3.5248,5.37329 -5.44326,13.32599 -1.91851,7.95265 -4.88534,16.20219 -6.593,18.33224 -1.70764,2.13005 -3.14652,7.51692 -3.19749,11.97083 l -0.0927,8.098 -8.58654,-8.97814 c -5.01983,-5.24869 -12.71332,-17.61144 -18.521217,-29.76183 -5.46408,-11.43103 -11.12953,-21.15733 -12.58993,-21.61396 -1.92359,-0.6015 -2.70817,2.65172 -2.84711,11.8056 -0.17149,11.29353 -0.40387,11.94704 -2.18772,6.15167 -1.09776,-3.5663 -2.85598,-6.48419 -3.90719,-6.48419 -3.2754,0 -15.02236,14.66238 -16.7835,20.94894 -1.85011,6.60418 2.09289,33.95587 5.84247,40.52794 4.34776,7.62051 2.48154,8.24905 -7.51524,2.53098 z"
       id="path147" />
    <path
       style="fill:#cccccc;stroke-width:0.364156"
       d="m 13.394443,237.94765 c -5.5138351,-2.41711 -7.2663991,-5.34287 -7.5475811,-12.60045 -0.375256,-9.68598 2.028808,-28.88457 5.0050291,-39.9694 1.493394,-5.56215 3.110458,-9.64854 7.525255,-19.01678 5.948697,-12.62315 11.727177,-23.01782 16.861617,-30.33162 2.5874,-3.68566 6.14036,-8.76446 7.89549,-11.28618 6.00723,-8.63123 8.98148,-11.59514 16.99861,-16.9397 9.75304,-6.50181 20.40022,-12.387773 32.29415,-17.852843 9.404297,-4.32113 10.775957,-4.67551 16.221257,-4.19116 2.24517,0.19954 4.27115,0.36308 4.50213,0.36346 0.60679,3.3e-4 3.54192,-4.23096 5.58038,-8.04489 2.43938,-4.564 3.33378,-8.08177 3.14697,-12.3772 -0.19457,-4.47409 -1.51571,-7.2619 -4.92923,-10.40146 -3.97316,-3.65437 -12.60187,-7.20432 -16.50118,-6.78876 -4.172427,0.44463 -13.789277,4.89554 -17.001007,7.86845 -2.81119,2.60218 -6.15555,8.28412 -6.50499,11.05179 -0.3394,2.68855 -0.012,3.33089 2.14551,4.20132 1.04356,0.42108 1.8014,0.91128 1.68414,1.08926 -0.11738,0.17817 -1.14213,0.5983 -2.27741,0.93401 -1.93962,0.57354 -2.1026,0.57429 -2.70088,0.015 -0.43868,-0.41151 -0.68259,-1.35895 -0.78422,-3.04609 -0.18501,-3.07321 1.10839,-7.58188 3.50909,-12.23151 2.89443,-5.6057 6.56825,-8.60843 15.87326,-12.97371 8.286837,-3.88767 9.262557,-4.19858 12.314117,-3.92379 5.83651,0.52557 10.39922,2.31249 13.10023,5.13057 3.53468,3.68779 4.32566,6.63538 4.6493,17.32506 0.19099,6.31341 0.1158,8.35017 -0.43657,11.8152 -0.36725,2.30274 -0.8852,4.58358 -1.15131,5.06857 -0.63648,1.15996 -2.54455,2.96226 -4.87233,4.60218 l -1.87995,1.32447 -6.76778,0.16129 c -8.21832,0.1958 -8.62433,0.3057 -19.175437,5.18503 -16.59107,7.67266 -26.43581,13.823243 -35.86093,22.404473 -7.94844,7.23676 -13.63024,14.47548 -21.45867,27.3386 -12.003362,19.72311 -22.473925,43.03361 -21.300205,47.42034 0.53087,1.9841 1.829239,-0.004 4.481448,-6.86055 1.748721,-4.52117 5.479447,-12.63556 7.831207,-17.03306 2.54751,-4.76354 5.6193,-9.85702 5.82708,-9.66212 0.0915,0.0859 -1.43198,3.15145 -3.38544,6.81258 -4.47054,8.37857 -7.893098,15.86968 -9.145585,20.01744 -0.534081,1.76865 -2.068419,5.91274 -3.409646,9.20905 -3.8521311,9.46738 -4.2637541,11.32298 -4.5031851,20.30068 -0.289549,10.85711 0.577686,16.74667 2.7685821,18.80182 1.26031,1.18216 3.502108,1.2352 8.866482,0.20967 2.074102,-0.39647 3.834972,-0.66094 3.913072,-0.58776 0.25096,0.23555 -2.88223,4.25147 -4.688437,6.00947 -1.463242,1.42425 -3.450418,2.79062 -3.892908,2.67674 -0.062,-0.015 -1.330754,-0.563 -2.819525,-1.21566 z"
       id="path149" />
    <path
       style="fill:#cccccc;stroke-width:0.364156"
       d="m 63.006743,225.97974 c -13.40223,-6.75001 -17.41272,-12.77396 -23.19826,-34.8449 -1.30978,-4.99662 -2.66445,-9.48999 -3.01038,-9.98518 -0.93403,-1.33723 -2.09355,-1.01522 -3.10304,0.8618 -1.15623,2.14985 -2.19268,6.61295 -4.43163,19.08321 l -1.93256,10.76387 -0.25697,-3.84631 c -1.00786,-15.08732 0.56462,-27.97497 5.89968,-48.35235 1.95143,-7.45357 2.23914,-9.00336 1.79096,-9.64731 -0.61682,-0.88633 -1.83583,0.20368 -4.58527,4.10088 -3.32044,4.70627 -9.621612,16.51933 -12.553113,23.53378 -4.203565,10.05822 -4.910954,11.58659 -5.437642,11.7484 -0.900433,0.27644 -0.213949,-3.67571 1.448913,-8.34188 2.24824,-6.30876 5.986433,-14.33392 11.526222,-24.7445 7.81695,-14.68984 15.02072,-25.94353 21.44799,-33.50587 6.13194,-7.2149 16.08076,-15.36635 25.69998,-21.05708 8.34823,-4.938823 21.90183,-11.528713 27.54237,-13.391403 3.462737,-1.14349 10.448257,-1.45478 19.011957,-0.84721 21.42105,1.51978 33.31204,5.72572 47.81375,16.912093 20.25453,15.62411 31.01792,35.38165 34.80064,63.88108 0.67723,5.10244 1.19548,29.44862 0.60807,28.56818 -0.19417,-0.29107 -0.89797,-2.35424 -1.56413,-4.585 -0.66616,-2.2308 -1.62015,-4.8739 -2.11991,-5.87351 -1.86551,-3.73138 -2.99363,-2.94275 -7.03347,4.91688 -4.51756,8.78907 -8.61542,14.83174 -15.11921,22.2946 -4.3237,4.96126 -8.82586,8.88918 -12.3868,10.80693 -3.94164,2.1227 -6.24081,3.20731 -6.42763,3.03207 -0.21446,-0.20105 1.2484,-3.49148 5.27656,-11.86941 4.14748,-8.62613 6.22692,-13.69841 6.22692,-15.18901 0,-1.65646 -2.10427,-5.22775 -7.66763,-13.01301 -5.78299,-8.09267 -7.68757,-11.05816 -12.82608,-19.97044 -3.9757,-6.89558 -6.40041,-10.4045 -7.1896,-10.4045 -1.17614,0 -3.31592,5.48252 -5.7814,14.81314 -2.0436,7.73394 -3.76908,12.49958 -6.03586,16.67087 -2.51264,4.62367 -3.0687,6.97465 -3.33199,14.08782 l -0.21804,5.89384 -4.69984,-4.95769 c -5.48724,-5.78825 -8.06211,-9.05857 -11.90316,-15.11823 -2.64021,-4.1651 -4.3405,-7.30376 -14.330057,-26.45201 -2.27696,-4.36456 -5.00804,-9.17586 -6.06904,-10.69166 -1.7108,-2.44415 -2.04523,-2.74355 -2.9549,-2.64524 -1.64069,0.17742 -1.98658,1.82893 -2.47301,11.8098 -0.23794,4.88256 -0.536,8.97373 -0.66229,9.0915 -0.12614,0.11778 -0.52611,-0.78221 -0.88851,-1.99989 -0.88767,-2.98233 -2.53245,-6.29353 -3.54383,-7.13414 -0.81712,-0.67914 -0.84466,-0.67929 -2.16607,-0.0113 -3.43449,1.735 -12.13787,12.55225 -14.85383,18.46154 -1.06499,2.31718 -1.41335,6.44123 -1.02994,12.19287 0.86447,12.96725 3.37327,25.06377 6.54388,31.55216 0.93077,1.90474 1.69231,3.80351 1.69231,4.21952 0,1.25388 -2.02536,0.95538 -5.54501,-0.81732 z"
       id="path151" />
    <path
       style="fill:#cccccc;stroke-width:0.364156"
       d="m 63.006743,225.97974 c -13.41989,-6.75893 -17.33061,-12.63064 -23.21797,-34.8605 -1.33452,-5.03901 -2.68808,-9.5364 -3.0079,-9.9943 -1.46822,-2.10192 -3.11848,-0.25656 -4.52099,5.05585 -0.50214,1.90192 -1.80532,8.44218 -2.89595,14.53395 l -1.98298,11.07591 -0.30236,-3.49301 c -0.41985,-4.85012 -0.0175,-19.27233 0.66835,-23.94923 0.91393,-6.23329 2.42468,-13.62842 4.21504,-20.63255 3.11535,-12.18767 3.28487,-13.05251 2.67118,-13.62816 -0.47636,-0.44688 -0.73665,-0.31695 -2.05983,1.02981 -4.07472,4.14667 -10.9516,16.92368 -17.494827,32.5048 -2.381015,5.66983 -3.301071,6.98024 -3.301071,4.70158 0,-6.81753 13.815898,-35.20829 26.256778,-53.95595 11.37111,-17.13556 23.50583,-27.51118 44.99405,-38.471523 6.55331,-3.34263 13.40486,-6.41014 16.89047,-7.56215 6.195217,-2.0476 24.793397,-1.19687 37.438947,1.71254 9.66153,2.22281 18.28169,6.17452 26.3192,12.065393 22.49037,16.48359 33.84129,36.35775 37.80311,66.18866 0.58503,4.40511 1.26631,28.92087 0.80367,28.92087 -0.12334,0 -0.5797,-1.15065 -1.01436,-2.55701 -2.27402,-7.35769 -3.74353,-10.49264 -4.91844,-10.49264 -0.8893,0 -2.44385,2.26857 -5.18348,7.56425 -3.33883,6.45392 -6.04585,10.7531 -10.11632,16.06619 -6.03615,7.87888 -12.29605,14.00624 -16.83753,16.48108 -3.48191,1.89738 -6.5914,3.35085 -6.78339,3.17073 -0.17507,-0.16429 2.16146,-5.53368 4.21708,-9.68999 4.20286,-8.49781 7.29352,-15.90772 7.29352,-17.4862 0,-1.4181 -2.45689,-5.56177 -7.302,-12.31516 -5.34901,-7.45566 -9.17315,-13.37838 -12.80933,-19.83849 -4.16674,-7.4027 -6.76139,-11.10985 -7.77586,-11.10985 -0.96546,0 -3.24851,6.05805 -5.41765,14.37563 -1.85909,7.12859 -3.91208,12.83863 -6.15359,17.11531 -2.63753,5.03211 -3.06134,6.79529 -3.34766,13.92759 l -0.24471,6.0932 -4.69984,-4.98549 c -2.58494,-2.74204 -5.74977,-6.35692 -7.03299,-8.03304 -3.44463,-4.49929 -8.41969,-12.68822 -12.22339,-20.11973 -6.731367,-13.15145 -11.216947,-21.43224 -13.069797,-24.12788 -1.66547,-2.42311 -2.0151,-2.7431 -2.89032,-2.6452 -1.65421,0.18529 -2.01247,1.87927 -2.44722,11.57387 -0.21327,4.75252 -0.47393,8.87909 -0.57949,9.17005 -0.10545,0.29106 -0.7383,-0.99853 -1.40601,-2.86557 -1.20663,-3.37388 -2.34246,-5.47996 -3.39876,-6.30234 -2.45538,-1.91152 -15.42904,13.49151 -17.4774,20.7501 -1.26099,4.46854 0.19032,20.62839 2.85268,31.76348 1.05514,4.41307 2.20443,7.65173 3.92843,11.07013 0.60788,1.20535 1.10538,2.54861 1.10553,2.9851 3.9e-4,1.29391 -1.97995,1.01529 -5.54469,-0.78011 z"
       id="path153" />
  </g>
</svg>
